<svg width="23" height="23" viewBox="0 0 23 23" fill="none" xmlns="http://www.w3.org/2000/svg">
<path d="M13.4326 14.8835V19.7078L17.7742 22.1186L22.1158 19.7078V14.8835L17.7742 12.4727L13.4326 14.8835ZM20.1851 18.5736L17.7742 19.9135L15.3634 18.5736V16.0203L17.7742 14.6804L20.1851 16.0203V18.5736Z" fill="black" stroke="black" stroke-width="0.0263768"/>
<path d="M16.822 17.452C16.8423 17.5771 16.8871 17.697 16.9537 17.8049C17.0204 17.9127 17.1076 18.0064 17.2104 18.0805C17.3133 18.1547 17.4297 18.2078 17.5531 18.237C17.6765 18.2661 17.8044 18.2707 17.9295 18.2504C18.0547 18.2301 18.1746 18.1853 18.2824 18.1187C18.3903 18.052 18.4839 17.9648 18.5581 17.862C18.6322 17.7591 18.6854 17.6427 18.7145 17.5193C18.7436 17.3959 18.7482 17.268 18.7279 17.1429C18.6869 16.8901 18.5472 16.664 18.3395 16.5143C18.1318 16.3646 17.8731 16.3035 17.6204 16.3445C17.3677 16.3855 17.1416 16.5252 16.9918 16.7329C16.8421 16.9406 16.781 17.1993 16.822 17.452Z" fill="black" stroke="black" stroke-width="0.0263768"/>
<path d="M0.893555 0.893555V22.1163H12.4703V20.1855H2.82433V2.82433H20.1882V11.5049H22.1163V0.893555H0.893555Z" fill="black" stroke="black" stroke-width="0.0263768"/>
<path d="M16.3291 8.0469V9.57675H18.2572V4.75244H13.4355V6.68058H14.9654L11.3808 10.2625L8.48725 8.33441L4.07178 12.7525L5.43546 14.1162L8.73519 10.8165L11.6287 12.7472L16.3291 8.0469ZM4.7523 16.3292H11.5047V18.2573H4.7523V16.3292Z" fill="black" stroke="black" stroke-width="0.0263768"/>
</svg>
