<svg width="22" height="17" viewBox="0 0 22 17" fill="none" xmlns="http://www.w3.org/2000/svg">
<path d="M6.118 16.9359C3.46682 16.9359 1.30846 16.3675 0.168132 15.7704C0.105039 15.7307 0.0558384 15.6723 0.0273345 15.6035C-0.00116936 15.5346 -0.00756896 15.4585 0.00902055 15.3859C0.0256101 15.3132 0.0643692 15.2475 0.119939 15.1978C0.175509 15.1481 0.245144 15.1169 0.319217 15.1085C2.31416 14.9953 4.26074 14.4504 6.02447 13.5113C4.43808 13.0832 2.82291 11.9501 2.50275 10.486C2.48931 10.4246 2.49218 10.3608 2.51107 10.3009C2.52996 10.241 2.56421 10.187 2.61042 10.1445C2.65662 10.1019 2.71317 10.0722 2.77443 10.0583C2.8357 10.0443 2.89954 10.0467 2.9596 10.0651C3.10776 10.1016 3.26048 10.1162 3.41286 10.1083C2.62892 9.6253 1.97514 8.95774 1.50862 8.16389C1.04209 7.37005 0.777001 6.47406 0.736499 5.55417C0.733104 5.48192 0.751567 5.41033 0.789477 5.34873C0.827387 5.28713 0.882984 5.2384 0.949013 5.20888C1.01504 5.17936 1.08844 5.17043 1.15962 5.18326C1.2308 5.19608 1.29646 5.23007 1.34803 5.28077C1.5207 5.42466 1.69937 5.56016 1.88402 5.68726C1.53788 4.96546 1.34039 4.18142 1.30331 3.38176C1.26624 2.5821 1.39032 1.78316 1.66819 1.03241C1.69108 0.974789 1.72848 0.92406 1.77675 0.885147C1.82502 0.846235 1.88254 0.820461 1.94371 0.810326C2.00488 0.800192 2.06763 0.80604 2.12587 0.827305C2.18412 0.848569 2.23587 0.884527 2.27613 0.93169C4.84097 3.92101 8.46701 5.28797 10.3088 5.22682C10.2608 4.96576 10.2367 4.70086 10.2369 4.43542C10.2388 3.25903 10.7072 2.13143 11.5393 1.29994C12.3715 0.468444 13.4995 0.000950997 14.6759 0C15.8559 0.0301823 16.9899 0.464463 17.8882 1.23026C18.1315 1.17453 18.3716 1.10608 18.6077 1.02522C19.0712 0.870772 19.5202 0.675765 19.9495 0.442463C20.0197 0.404036 20.1007 0.390117 20.1797 0.40291C20.2587 0.415702 20.3312 0.454474 20.3856 0.513092C20.4401 0.57171 20.4735 0.646824 20.4805 0.72655C20.4875 0.806275 20.4677 0.886058 20.4243 0.953273C20.0115 1.54907 19.5546 2.11303 19.0573 2.64039C19.6187 2.5153 20.1714 2.35429 20.7121 2.15835C20.7847 2.12592 20.8661 2.11849 20.9434 2.13722C21.0207 2.15595 21.0897 2.1998 21.1394 2.26189C21.1892 2.32398 21.217 2.40081 21.2184 2.48037C21.2198 2.55992 21.1948 2.6377 21.1473 2.70154C20.6422 3.37778 20.048 3.98278 19.3811 4.50017C19.3271 6.20887 17.9961 13.9466 11.6542 16.1121H11.6146C9.83305 16.6562 7.9808 16.9338 6.118 16.9359ZM1.84445 15.6517C4.99766 16.4695 8.31653 16.391 11.4276 15.425C17.5429 13.3099 18.7084 5.39589 18.6616 4.31671C18.6587 4.25786 18.6704 4.19919 18.6954 4.14588C18.7205 4.09256 18.7583 4.04623 18.8055 4.01094C19.1314 3.77508 19.4403 3.51664 19.73 3.23753C19.1724 3.39581 18.6113 3.50373 18.4638 3.35624C18.4272 3.31954 18.399 3.27536 18.381 3.22674C18.3303 3.09377 18.2714 2.96403 18.2048 2.83824C18.1655 2.76138 18.1551 2.67294 18.1756 2.58907C18.196 2.50519 18.246 2.43148 18.3163 2.38138C18.5553 2.15697 18.7789 1.9166 18.9854 1.66193L18.8343 1.71229C18.5084 1.82477 18.1755 1.91609 17.8379 1.98569C17.7721 2.0005 17.7036 1.99655 17.64 1.97429C17.5764 1.95203 17.5203 1.91235 17.4781 1.85978C17.0465 1.32019 15.7515 0.719452 14.6759 0.719452C14.1011 0.718001 13.5339 0.850157 13.0189 1.10549C12.504 1.36082 12.0555 1.73234 11.7087 2.19072C11.362 2.64911 11.1265 3.18181 11.0209 3.74679C10.9153 4.31177 10.9424 4.89356 11.1002 5.44625C11.1141 5.49476 11.1176 5.54564 11.1105 5.59559C11.1034 5.64555 11.0859 5.69345 11.0591 5.7362C11.0323 5.77894 10.9968 5.81557 10.9549 5.8437C10.913 5.87184 10.8657 5.89085 10.816 5.8995C9.01739 6.21606 5.09638 4.9822 2.15742 1.87777C1.71136 3.6764 2.39124 5.72324 3.40566 6.5542C3.46588 6.61021 3.50509 6.68517 3.51676 6.76657C3.52842 6.84798 3.51184 6.93093 3.46978 7.0016C3.42771 7.07226 3.36271 7.12639 3.28558 7.15494C3.20846 7.1835 3.12388 7.18477 3.04594 7.15854C2.53307 6.92837 2.04188 6.65268 1.57826 6.33477C1.9128 7.89238 3.01716 9.1874 4.69348 9.96081C4.75831 9.99097 4.81268 10.0398 4.84965 10.101C4.88662 10.1622 4.90451 10.233 4.90103 10.3044C4.89756 10.3759 4.87288 10.4446 4.83015 10.5019C4.78741 10.5593 4.72856 10.6026 4.66111 10.6263C4.25396 10.743 3.83279 10.8035 3.40926 10.8062C3.99562 11.9213 5.62158 12.7918 6.95976 12.9321C7.02743 12.9389 7.0918 12.9647 7.14541 13.0065C7.19902 13.0484 7.23966 13.1046 7.26263 13.1686C7.2856 13.2326 7.28996 13.3018 7.27519 13.3682C7.26042 13.4346 7.22713 13.4954 7.17919 13.5437C6.39499 14.3279 4.12152 15.2704 1.84445 15.6517Z" fill="black"/>
</svg>
