<svg width="55" height="53" viewBox="0 0 55 53" fill="none" xmlns="http://www.w3.org/2000/svg">
<g clip-path="url(#clip0_207_983)">
<path d="M36.1392 6.74622C39.65 15.5131 43.1608 24.2804 46.7076 33.1382C45.916 33.1382 45.1941 33.161 44.4766 33.1181C44.3375 33.1097 44.1587 32.8683 44.0894 32.6949C43.6914 31.7018 43.3085 30.7015 42.9476 29.6934C42.837 29.3834 42.6909 29.2725 42.366 29.273C36.9872 29.2842 31.6091 29.2842 26.2303 29.273C25.8893 29.2725 25.7105 29.3857 25.5896 29.7107C25.2239 30.696 24.8264 31.6684 24.4639 32.6553C24.3399 32.9932 24.1863 33.1633 23.8023 33.1398C23.153 33.1008 22.4999 33.1292 21.7507 33.1292C22.2711 31.8323 22.7657 30.5984 23.2802 29.3165C23.0471 29.3015 22.8978 29.2836 22.7485 29.2836C19.9826 29.2814 17.2162 29.2881 14.4503 29.2719C14.0894 29.2697 13.9111 29.3706 13.7833 29.7352C13.4358 30.7272 13.0352 31.6979 12.6683 32.6832C12.5518 32.9965 12.3928 33.151 12.0384 33.132C11.4073 33.0975 10.773 33.1226 10.0362 33.1226C13.5497 24.2732 17.039 15.4835 20.5283 6.69436C20.5842 6.69102 20.6406 6.68711 20.6964 6.68377C23.298 12.9175 25.8995 19.1513 28.522 25.4363C28.3528 25.4486 28.1928 25.4698 28.0322 25.4698C24.1519 25.4675 20.2716 25.4843 16.3918 25.4402C15.7017 25.4324 15.3145 25.6231 15.1743 26.3223C15.1399 26.4929 15.061 26.6541 14.9804 26.8821H41.7752C41.5856 26.46 41.4444 26.0452 41.2172 25.6894C41.1243 25.5439 40.845 25.4625 40.65 25.462C37.346 25.4525 34.042 25.4502 30.7385 25.4759C30.2406 25.4798 29.9721 25.3705 29.753 24.8481C26.8206 17.8527 23.8581 10.8712 20.9032 3.88583C20.8441 3.74588 20.7802 3.60871 20.6679 3.3578C20.4896 3.72859 20.3409 3.99567 20.2286 4.27837C17.3741 11.4622 14.5218 18.6467 11.6726 25.8327C10.7741 28.0988 9.87775 30.3659 9.00018 32.6408C8.85678 33.0127 8.67687 33.1666 8.28105 33.1426C7.66987 33.1053 7.05546 33.1326 6.38037 33.1326C6.43247 32.9386 6.45717 32.7886 6.51195 32.6514C10.374 22.9718 14.2398 13.2944 18.104 3.61596C18.4789 2.67755 18.857 1.74026 19.213 0.794048C19.3274 0.490166 19.4773 0.364153 19.8054 0.386457C20.3221 0.421584 20.8457 0.435524 21.3597 0.387014C21.8205 0.343523 22.0273 0.511354 22.2029 0.956304C23.5316 4.33134 24.8861 7.69578 26.2411 11.0597C26.8775 12.6404 27.5317 14.2133 28.1794 15.7891C28.2449 15.9491 28.3254 16.1024 28.4479 16.3634C28.8877 15.2872 29.2991 14.3148 29.6842 13.3312C31.268 9.29046 32.8567 5.25246 34.4088 1.19885C34.6456 0.580494 34.9442 0.322335 35.5871 0.406529C36.1714 0.483475 36.8959 0.258771 37.3213 0.545924C37.7241 0.817466 37.8283 1.57745 38.049 2.12945C42.0856 12.2328 46.1201 22.3367 50.1534 32.4412C50.2329 32.6402 50.2952 32.8465 50.3962 33.1382C49.6287 33.1382 48.9241 33.1716 48.227 33.1131C48.0664 33.0997 47.8757 32.7964 47.7914 32.5867C46.7726 30.0497 45.7849 27.4994 44.7629 24.9635C42.0067 18.1281 39.2381 11.2983 36.4733 4.46683C36.3497 4.16127 36.2149 3.86018 36.0205 3.40464C35.6537 4.30625 35.3401 5.06232 35.0372 5.82342C33.2997 10.187 31.5392 14.5412 29.8679 18.9316C29.6923 19.3927 30.0457 20.0707 30.1531 20.6478C30.2181 20.6411 30.2825 20.6344 30.3475 20.6277C32.2219 16.0115 34.0967 11.3948 35.9711 6.77856C36.0275 6.76796 36.0839 6.75737 36.1403 6.74622H36.1392ZM25.0585 23.0744C23.5885 19.4925 22.1406 15.9652 20.6309 12.2869C19.1937 15.9641 17.8145 19.4919 16.4138 23.0744H25.0585ZM40.2322 23.0867C38.8181 19.512 37.4416 16.0344 36.0087 12.4129C34.5409 16.06 33.1408 19.5399 31.7133 23.0867H40.2322Z" fill="#FFBD59"/>
<path d="M34.913 33.1021H25.5718C25.8537 32.3499 26.1062 31.6262 26.4048 30.9231C26.459 30.7949 26.6991 30.6811 26.8543 30.6794C29.0611 30.656 31.2684 30.6482 33.4758 30.6544C33.6353 30.6544 33.8802 30.7491 33.9403 30.8746C34.2787 31.581 34.573 32.3098 34.913 33.1021Z" fill="#FFBD59"/>
</g>
<path d="M0.755468 44.4538L1.7336 44.087L5.09592 35.9563H5.46271L8.9473 44.2704L9.55863 44.4538V44.6372H8.09144C7.66758 44.6372 7.32116 44.5435 7.05217 44.356C6.78319 44.1604 6.58349 43.9077 6.45307 43.5979L5.82951 42.1308H2.90735L2.1004 44.087L3.01739 44.4538V44.6372H0.755468V44.4538ZM3.02962 41.8251H5.70725L4.36232 38.6095L3.02962 41.8251ZM9.92161 44.4538L10.6552 44.2704V36.4454L9.92161 36.262V36.0786H13.1617C14.5473 36.0786 15.5458 36.2905 16.1572 36.7144C16.7685 37.1301 17.0742 37.7129 17.0742 38.4628C17.0742 38.9681 16.9397 39.3798 16.6707 39.6977C16.4017 40.0074 16.0553 40.2397 15.6314 40.3946C15.1831 40.5657 14.7063 40.6554 14.2009 40.6636V40.7247C14.5025 40.741 14.7674 40.7858 14.9957 40.8592C15.5662 41.0385 15.9534 41.3605 16.1572 41.8251L17.2576 44.2704L17.8689 44.4538V44.6372H16.1572C15.4888 44.6372 14.9997 44.2908 14.69 43.5979L13.4673 40.847H12.6726V44.2704L13.5285 44.4538V44.6372H9.92161V44.4538ZM13.1617 40.5413C13.7322 40.5413 14.1805 40.362 14.5066 40.0033C14.8326 39.6447 14.9957 39.1312 14.9957 38.4628C14.9957 37.7944 14.8326 37.2809 14.5066 36.9222C14.1805 36.5636 13.7322 36.3842 13.1617 36.3842H12.6726V40.5413H13.1617ZM19.8915 44.4538L20.6251 44.2704V36.3842H19.2191C19.2191 36.8815 19.0846 37.3583 18.8156 37.8148C18.7015 38.0022 18.5711 38.1571 18.4244 38.2794H18.0576V36.0786H25.2101V38.2794H24.8433C24.6885 38.1571 24.554 38.0022 24.4399 37.8148C24.179 37.3746 24.0486 36.8978 24.0486 36.3842H22.6425V44.2704L23.3761 44.4538V44.6372H19.8915V44.4538ZM26.1243 44.6372V44.4538L26.8579 44.2704V36.4454L26.1243 36.262V36.0786H29.6088V36.262L28.8752 36.4454V44.2704L29.6088 44.4538V44.6372H26.1243ZM33.8242 44.8206C33.2454 44.8206 32.7034 44.6902 32.198 44.4294C31.9698 44.3152 31.7782 44.1807 31.6234 44.0259C31.5093 44.2134 31.3666 44.3804 31.1954 44.5272C31.0487 44.6331 30.9672 44.6902 30.9509 44.6983H30.6452V42.3753H31.1343C31.2566 42.7747 31.4277 43.1333 31.6478 43.4512C32.145 44.1604 32.789 44.5149 33.5796 44.5149C34.0442 44.5149 34.4151 44.3764 34.6922 44.0992C34.9694 43.8221 35.108 43.4512 35.108 42.9866C35.108 42.7176 35.0264 42.4772 34.8634 42.2652C34.7086 42.0533 34.5129 41.8658 34.2765 41.7028C34.0402 41.5398 33.71 41.336 33.2862 41.0915C32.7482 40.7899 32.3121 40.5168 31.9779 40.2723C31.6437 40.0278 31.3585 39.7221 31.1221 39.3553C30.8857 38.9804 30.7675 38.5402 30.7675 38.0348C30.7675 37.6354 30.8775 37.2768 31.0976 36.9589C31.3259 36.6329 31.6641 36.3761 32.1124 36.1886C32.5607 35.993 33.1109 35.8952 33.763 35.8952C34.2358 35.8952 34.7086 36.0297 35.1813 36.2987C35.3606 36.3965 35.54 36.5269 35.7193 36.6899C35.8579 36.478 36.0005 36.3109 36.1472 36.1886C36.2939 36.0827 36.3754 36.0256 36.3917 36.0174H36.6974V38.3405H36.2083C36.1024 37.9492 35.9434 37.5947 35.7315 37.2768C35.5359 36.967 35.2914 36.7103 34.9979 36.5065C34.7126 36.3027 34.3825 36.2008 34.0076 36.2008C33.6897 36.2008 33.4166 36.3272 33.1884 36.5799C32.9601 36.8326 32.846 37.1545 32.846 37.5458C32.846 37.8474 32.9316 38.1204 33.1028 38.365C33.2821 38.6013 33.4981 38.8092 33.7508 38.9885C34.0116 39.1678 34.3621 39.3838 34.8023 39.6365C35.3158 39.93 35.7315 40.1908 36.0494 40.419C36.3673 40.6473 36.6363 40.9325 36.8564 41.2749C37.0764 41.6091 37.1865 41.9963 37.1865 42.4364C37.1865 42.8766 37.0601 43.2801 36.8075 43.6469C36.5548 44.0055 36.1757 44.2908 35.6704 44.5027C35.165 44.7146 34.5496 44.8206 33.8242 44.8206ZM37.0055 44.4538L37.9836 44.087L41.3459 35.9563H41.7127L45.1973 44.2704L45.8086 44.4538V44.6372H44.3414C43.9176 44.6372 43.5712 44.5435 43.3022 44.356C43.0332 44.1604 42.8335 43.9077 42.7031 43.5979L42.0795 42.1308H39.1573L38.3504 44.087L39.2674 44.4538V44.6372H37.0055V44.4538ZM39.2796 41.8251H41.9572L40.6123 38.6095L39.2796 41.8251ZM47.272 38.1571V44.087L48.2501 44.4538V44.6372H45.9271V44.4538L46.9052 44.087V36.5065L46.0493 36.262V36.0786H47.3331C47.7651 36.0786 48.1034 36.156 48.3479 36.3109C48.5925 36.4658 48.8248 36.6736 49.0449 36.9344L52.9574 41.5194V36.6288L51.9792 36.262V36.0786H54.3023V36.262L53.3242 36.6288V44.8206H52.9574L47.272 38.1571Z" fill="black"/>
<path d="M16.4178 50.9953C15.9825 50.9953 15.6475 50.9024 15.4128 50.7165C15.178 50.5307 15.0606 50.2935 15.0606 50.0049C15.0606 49.8142 15.1022 49.6259 15.1854 49.4401C15.2196 49.352 15.2636 49.2713 15.3174 49.198C15.5179 49.1491 15.7356 49.1051 15.9703 49.0659C16.4985 48.9779 16.9656 48.9241 17.3715 48.9045V48.6845C17.3715 48.1416 17.3055 47.7675 17.1734 47.5621C17.0414 47.3567 16.8384 47.2539 16.5645 47.2539C16.4618 47.2539 16.3738 47.2662 16.3004 47.2906L16.1977 47.3273V48.4277L16.1024 48.4497C16.0241 48.4595 15.9581 48.4644 15.9043 48.4644C15.738 48.4644 15.6035 48.4155 15.5008 48.3177C15.403 48.215 15.3541 48.0805 15.3541 47.9142C15.3541 47.6892 15.4666 47.4985 15.6915 47.342C15.9214 47.1855 16.2613 47.1072 16.7112 47.1072C17.0927 47.1072 17.4204 47.1757 17.6943 47.3126C17.973 47.4447 18.1833 47.6305 18.3252 47.8702C18.4719 48.1049 18.5452 48.3764 18.5452 48.6845V50.6652L18.9854 50.7752V50.8853H18.3252C18.0317 50.8853 17.8043 50.7948 17.6429 50.6138C17.5744 50.5405 17.5206 50.4475 17.4815 50.3351C17.413 50.4573 17.3324 50.5674 17.2394 50.6652C17.0193 50.8853 16.7455 50.9953 16.4178 50.9953ZM16.7112 50.7385C16.8922 50.7385 17.056 50.6407 17.2027 50.4451C17.2565 50.3717 17.3128 50.2739 17.3715 50.1517V49.0879C17.1465 49.0879 16.9313 49.1002 16.7259 49.1246C16.5743 49.1442 16.4716 49.1564 16.4178 49.1613C16.3933 49.2151 16.3689 49.2885 16.3444 49.3814C16.2955 49.5672 16.2711 49.7506 16.2711 49.9316C16.2711 50.2055 16.3127 50.4084 16.3958 50.5405C16.4789 50.6725 16.5841 50.7385 16.7112 50.7385ZM19.2123 47.4373L18.8455 47.3273V47.2173H19.7625C20.0169 47.2173 20.2174 47.2711 20.3641 47.3787C20.5157 47.4814 20.6453 47.6354 20.7529 47.8408L21.6259 49.5354L22.4402 47.5474L21.89 47.3273V47.2173H23.2471V47.3273L22.6602 47.5474L21.2664 50.9586H21.0463L19.2123 47.4373ZM25.2281 50.9953C24.6021 50.9953 24.1155 50.8241 23.7683 50.4818C23.421 50.1345 23.2474 49.6577 23.2474 49.0513C23.2474 48.6551 23.3232 48.3103 23.4748 48.0169C23.6264 47.7235 23.8367 47.4985 24.1057 47.342C24.3796 47.1855 24.6926 47.1072 25.0447 47.1072C25.3969 47.1072 25.705 47.1733 25.9691 47.3053C26.238 47.4373 26.4435 47.6159 26.5853 47.8408C26.732 48.0609 26.8054 48.3054 26.8054 48.5744C26.8054 48.6967 26.7931 48.8018 26.7687 48.8899L26.732 49.0146C26.5217 49.0586 26.2943 49.0953 26.0498 49.1246C25.5362 49.198 25.0178 49.2347 24.4945 49.2347C24.4945 49.802 24.5728 50.2079 24.7293 50.4524C24.8858 50.6921 25.101 50.8119 25.3748 50.8119C25.5656 50.8119 25.7416 50.7679 25.903 50.6798C26.0693 50.5869 26.1989 50.4671 26.2918 50.3204C26.3897 50.1688 26.4386 50.0147 26.4386 49.8582H26.622C26.622 50.0538 26.5633 50.2397 26.4459 50.4158C26.3285 50.5918 26.1647 50.7336 25.9544 50.8412C25.7441 50.9439 25.502 50.9953 25.2281 50.9953ZM24.4945 49.0513C24.8075 49.0513 25.0618 49.039 25.2575 49.0146C25.3406 49.0097 25.4286 48.9975 25.5216 48.9779C25.5265 48.9534 25.5387 48.8997 25.5582 48.8165C25.5827 48.6942 25.5949 48.5646 25.5949 48.4277C25.5949 48.0218 25.5411 47.7259 25.4335 47.5401C25.3259 47.3493 25.1963 47.2539 25.0447 47.2539C24.6779 47.2539 24.4945 47.8531 24.4945 49.0513ZM27.3524 50.7752L27.7926 50.6652V47.4373L27.3524 47.3273V47.2173H28.0126C28.3012 47.2173 28.5286 47.3102 28.6949 47.496C28.7585 47.5694 28.8123 47.6599 28.8563 47.7675C28.9247 47.6403 29.0054 47.5303 29.0984 47.4373C29.3184 47.2173 29.5923 47.1072 29.92 47.1072C30.1939 47.1072 30.4384 47.1659 30.6536 47.2833C30.8737 47.3958 31.0448 47.5449 31.1671 47.7308C31.2894 47.9166 31.3505 48.1123 31.3505 48.3177V50.6652L31.7907 50.7752V50.8853H30.837C30.3968 50.8853 30.1768 50.6652 30.1768 50.225V48.3177C30.1768 48.0096 30.1205 47.7748 30.008 47.6134C29.9004 47.4471 29.7733 47.364 29.6266 47.364C29.4407 47.364 29.2744 47.4618 29.1277 47.6574C29.0641 47.7406 29.0103 47.8384 28.9663 47.9509V50.6652L29.4065 50.7752V50.8853H27.3524V50.7752ZM33.9917 50.9953C33.7179 50.9953 33.4709 50.9391 33.2508 50.8266C33.0356 50.7092 32.8669 50.5576 32.7446 50.3717C32.6224 50.1859 32.5612 49.9903 32.5612 49.7849V47.4373L32.1211 47.3273V47.2173H33.0747C33.5149 47.2173 33.735 47.4373 33.735 47.8775V49.7849C33.735 50.093 33.7888 50.3302 33.8964 50.4964C34.0089 50.6578 34.1385 50.7385 34.2852 50.7385C34.4661 50.7385 34.63 50.6407 34.7767 50.4451C34.8305 50.3717 34.8867 50.2739 34.9454 50.1517V47.4373L34.5053 47.3273V47.2173H36.5593V47.3273L36.1192 47.4373V50.9219H36.0458C35.6888 50.9219 35.4174 50.8241 35.2315 50.6285C35.1484 50.5405 35.0897 50.4427 35.0555 50.3351C34.987 50.4573 34.9063 50.5674 34.8134 50.6652C34.5933 50.8853 34.3194 50.9953 33.9917 50.9953ZM38.9831 50.9953C38.3571 50.9953 37.8704 50.8241 37.5232 50.4818C37.176 50.1345 37.0024 49.6577 37.0024 49.0513C37.0024 48.6551 37.0782 48.3103 37.2298 48.0169C37.3814 47.7235 37.5917 47.4985 37.8607 47.342C38.1345 47.1855 38.4475 47.1072 38.7997 47.1072C39.1518 47.1072 39.4599 47.1733 39.724 47.3053C39.993 47.4373 40.1984 47.6159 40.3402 47.8408C40.4869 48.0609 40.5603 48.3054 40.5603 48.5744C40.5603 48.6967 40.5481 48.8018 40.5236 48.8899L40.4869 49.0146C40.2766 49.0586 40.0492 49.0953 39.8047 49.1246C39.2912 49.198 38.7728 49.2347 38.2495 49.2347C38.2495 49.802 38.3277 50.2079 38.4842 50.4524C38.6407 50.6921 38.8559 50.8119 39.1298 50.8119C39.3205 50.8119 39.4966 50.7679 39.658 50.6798C39.8243 50.5869 39.9539 50.4671 40.0468 50.3204C40.1446 50.1688 40.1935 50.0147 40.1935 49.8582H40.3769C40.3769 50.0538 40.3182 50.2397 40.2008 50.4158C40.0835 50.5918 39.9196 50.7336 39.7093 50.8412C39.499 50.9439 39.2569 50.9953 38.9831 50.9953ZM38.2495 49.0513C38.5625 49.0513 38.8168 49.039 39.0124 49.0146C39.0955 49.0097 39.1836 48.9975 39.2765 48.9779C39.2814 48.9534 39.2936 48.8997 39.3132 48.8165C39.3376 48.6942 39.3499 48.5646 39.3499 48.4277C39.3499 48.0218 39.2961 47.7259 39.1885 47.5401C39.0809 47.3493 38.9513 47.2539 38.7997 47.2539C38.4329 47.2539 38.2495 47.8531 38.2495 49.0513Z" fill="black"/>
<defs>
<clipPath id="clip0_207_983">
<rect width="44.0158" height="32.7673" fill="white" transform="translate(6.37964 0.380371)"/>
</clipPath>
</defs>
</svg>
